<svg xmlns="http://www.w3.org/2000/svg" xmlns:xlink="http://www.w3.org/1999/xlink" width="500" zoomAndPan="magnify" viewBox="0 0 375 374.999991" height="500" preserveAspectRatio="xMidYMid meet" version="1.0"><defs><clipPath id="id1"><path d="M 7.875 52 L 161 52 L 161 183 L 7.875 183 Z M 7.875 52 " clip-rule="nonzero"/></clipPath><clipPath id="id2"><path d="M 183 214 L 305 214 L 305 367.949219 L 183 367.949219 Z M 183 214 " clip-rule="nonzero"/></clipPath></defs><path fill="#8669fb" d="M 276.238281 39.902344 C 271.714844 35.660156 264.546875 36.007812 260.007812 40.234375 L 203.773438 92.5625 L 175.210938 21.242188 C 172.902344 15.488281 166.566406 12.113281 160.671875 14.023438 C 154.949219 15.875 151.648438 21.683594 152.828125 27.4375 L 178.773438 154.398438 C 180.839844 164.496094 193.863281 167.414062 200.035156 159.15625 L 277.613281 55.382812 C 281.132812 50.675781 280.625 44.019531 276.238281 39.902344 " fill-opacity="1" fill-rule="nonzero"/><path fill="#8669fb" d="M 237.910156 34.273438 C 235.425781 45.371094 224.417969 52.351562 213.328125 49.867188 C 202.234375 47.382812 195.257812 36.371094 197.738281 25.277344 C 200.222656 14.179688 211.230469 7.199219 222.320312 9.679688 C 233.414062 12.164062 240.390625 23.175781 237.910156 34.273438 " fill-opacity="1" fill-rule="nonzero"/><g clip-path="url(#id1)"><path fill="#03ccac" d="M 68.226562 54.003906 C 62.800781 57 60.914062 63.925781 63.527344 69.550781 L 95.898438 139.222656 L 19.269531 144.363281 C 13.085938 144.777344 7.921875 149.761719 7.910156 155.960938 C 7.902344 161.980469 12.40625 166.910156 18.242188 167.570312 L 146.960938 182.113281 C 157.199219 183.273438 163.996094 171.78125 158.054688 163.359375 L 83.371094 57.480469 C 79.984375 52.679688 73.496094 51.105469 68.226562 54.003906 " fill-opacity="1" fill-rule="nonzero"/></g><path fill="#03ccac" d="M 51.03125 88.734375 C 60.8125 94.527344 64.050781 107.152344 58.261719 116.941406 C 52.472656 126.726562 39.847656 129.960938 30.066406 124.171875 C 20.28125 118.382812 17.046875 105.75 22.835938 95.964844 C 28.625 86.179688 41.25 82.941406 51.03125 88.734375 " fill-opacity="1" fill-rule="nonzero"/><path fill="#b1365b" d="M 17.359375 256.269531 C 18.523438 262.359375 24.53125 266.296875 30.679688 265.546875 L 106.925781 256.277344 L 88.128906 330.773438 C 86.609375 336.785156 89.757812 343.238281 95.648438 345.164062 C 101.367188 347.03125 107.445312 344.269531 109.875 338.921875 L 163.480469 220.953125 C 167.746094 211.566406 158.921875 201.550781 149.078125 204.597656 L 25.339844 242.9375 C 19.730469 244.675781 16.226562 250.363281 17.359375 256.269531 " fill-opacity="1" fill-rule="nonzero"/><path fill="#b1365b" d="M 45.058594 283.363281 C 53.585938 275.847656 66.59375 276.667969 74.105469 285.199219 C 81.625 293.730469 80.800781 306.742188 72.269531 314.261719 C 63.742188 321.777344 50.734375 320.953125 43.21875 312.421875 C 35.707031 303.890625 36.53125 290.882812 45.058594 283.363281 " fill-opacity="1" fill-rule="nonzero"/><g clip-path="url(#id2)"><path fill="#9bd4e4" d="M 193.925781 367.171875 C 200.078125 367.945312 205.675781 363.449219 206.863281 357.363281 L 221.609375 281.960938 L 286.625 322.863281 C 291.871094 326.164062 298.980469 325.164062 302.628906 320.152344 C 306.171875 315.292969 305.429688 308.65625 301.09375 304.691406 L 205.507812 217.234375 C 197.902344 210.277344 185.648438 215.578125 185.507812 225.882812 L 183.71875 355.460938 C 183.636719 361.332031 187.960938 366.421875 193.925781 367.171875 " fill-opacity="1" fill-rule="nonzero"/></g><path fill="#9bd4e4" d="M 228.246094 349.1875 C 223.734375 338.753906 228.535156 326.632812 238.96875 322.121094 C 249.402344 317.605469 261.515625 322.410156 266.03125 332.847656 C 270.539062 343.285156 265.738281 355.40625 255.304688 359.917969 C 244.871094 364.429688 232.753906 359.628906 228.246094 349.1875 " fill-opacity="1" fill-rule="nonzero"/><path fill="#fff9c7" d="M 353.925781 233.449219 C 356.5625 227.839844 354.015625 221.121094 348.597656 218.109375 L 281.46875 180.777344 L 340.445312 131.5625 C 345.207031 127.589844 346.453125 120.515625 342.816406 115.5 C 339.289062 110.625 332.746094 109.285156 327.636719 112.179688 L 214.957031 176.105469 C 205.992188 181.1875 207.246094 194.480469 217 197.800781 L 339.632812 239.542969 C 345.195312 241.4375 351.367188 238.894531 353.925781 233.449219 " fill-opacity="1" fill-rule="nonzero"/><path fill="#fff9c7" d="M 347.433594 195.242188 C 336.117188 196.308594 326.078125 187.996094 325.011719 176.675781 C 323.945312 165.355469 332.253906 155.308594 343.570312 154.242188 C 354.890625 153.175781 364.925781 161.492188 365.992188 172.8125 C 367.058594 184.136719 358.75 194.175781 347.433594 195.242188 " fill-opacity="1" fill-rule="nonzero"/></svg>